<?xml version="1.0" encoding="utf-8"?>
<!-- Designed by Vexels.com - 2016 All Rights Reserved - https://vexels.com/terms-and-conditions/  -->

<svg version="1.1" id="Capa_1" xmlns="http://www.w3.org/2000/svg" xmlns:xlink="http://www.w3.org/1999/xlink" x="0px" y="0px"
	 width="1200px" height="1200px" viewBox="0 0 1200 1200" enable-background="new 0 0 1200 1200" xml:space="preserve">
<g id="VEXELS">
</g>
<g>
	<g id="BACKGROUND">
		<g>
			<circle fill="#4376B1" cx="600.001" cy="600" r="550"/>
			<g>
				<path fill="#FFFFFF" d="M399.165,466.108c31.938,0,57.848-25.891,57.848-57.843c0-31.962-25.909-57.839-57.848-57.839
					c-31.934,0-57.858,25.877-57.858,57.839C341.306,440.217,367.231,466.108,399.165,466.108z"/>
				<path fill="#FFFFFF" d="M450.383,502.46H347.941c-3.663,0-6.635,2.964-6.635,6.629v333.882c0,3.667,2.972,6.61,6.635,6.61
					h102.442c3.67,0,6.634-2.943,6.634-6.61V509.089C457.012,505.424,454.053,502.46,450.383,502.46z"/>
				<path fill="#FFFFFF" d="M858.372,585.131c-7.436-27.944-37.315-87.595-120.345-87.595c-49.819,0-84.27,24.12-102.49,43.798
					v-32.245c0-3.665-2.943-6.629-6.615-6.629H526.435c-3.652,0-6.603,2.964-6.603,6.629v333.882c0,3.667,2.95,6.61,6.603,6.61
					h102.486c3.672,0,6.615-2.943,6.615-6.61V639.1c0.304-20.883,19.022-50.654,54.546-50.654c49.582,0,52.916,29.732,52.916,66.097
					v188.429c0,3.667,2.938,6.61,6.62,6.61h102.462c3.648,0,6.591-2.943,6.591-6.61V607.51
					C858.802,584.849,858.372,585.131,858.372,585.131z"/>
			</g>
			<path opacity="0.2" enable-background="new    " d="M834.832,539.894c13.326,16.169,20.391,33.516,23.521,45.218
				c0,0,0.449-0.244,0.318,22.384v235.461c0,3.696-2.918,6.625-6.581,6.625H749.599c-3.662,0-6.581-2.929-6.581-6.625V654.538
				c0-36.359-3.334-66.092-52.936-66.092c-35.548,0-54.242,29.781-54.556,50.654v203.856c0,3.696-2.934,6.625-6.625,6.625h-28.881
				h-73.576c-3.652,0-6.622-2.929-6.622-6.625V509.099c0-3.696,2.97-6.62,6.622-6.62h48.675L441.981,369.352
				c9.347,10.28,15.031,23.933,15.031,38.918c0,31.933-25.914,57.848-57.848,57.848c-15.636,0-29.814-6.214-40.215-16.288
				l52.654,52.649h38.794c3.65,0,6.619,2.924,6.619,6.62v333.857c0,3.696-2.969,6.625-6.619,6.625H347.945
				c-1.384,0-2.643-0.406-3.701-1.141l255.777,255.773l44.033,44.036c209.254-16.572,385.646-150.311,463.366-335.758
				L834.832,539.894z"/>
			<path fill="none" d="M822.09,510.263"/>
			<g>
				<path opacity="0.1" enable-background="new    " d="M858.671,607.496v235.461c0,3.696-2.918,6.625-6.581,6.625H749.599
					c-3.662,0-6.581-2.929-6.581-6.625V654.538c0-36.359-3.334-66.092-52.936-66.092c-35.548,0-54.242,29.781-54.556,50.654v203.856
					c0,3.696-2.934,6.625-6.625,6.625h-28.881V502.479h28.881c3.691,0,6.625,2.924,6.625,6.62v32.216
					c18.24-19.663,52.69-43.793,102.495-43.793c36.325,0,62.479,11.415,81.049,26.608l15.761,15.764
					c13.326,16.169,20.391,33.516,23.526,45.218C858.353,585.112,858.802,584.868,858.671,607.496z"/>
				<path fill="#FFFFFF" d="M834.832,539.894l-15.761-15.764C825.072,529.088,830.324,534.452,834.832,539.894z"/>
			</g>
		</g>
	</g>
</g>
</svg>
